<mxfile host="app.diagrams.net" agent="Mozilla/5.0 (Windows NT 10.0; Win64; x64) AppleWebKit/537.36 (KHTML, like Gecko) Chrome/132.0.0.0 Safari/537.36 Edg/132.0.0.0" version="26.0.11" pages="3">
  <diagram name="Página-1" id="kbfQnxgLnGt7NoyHu_p-">
    <mxGraphModel dx="1426" dy="1916" grid="1" gridSize="10" guides="1" tooltips="1" connect="1" arrows="1" fold="1" page="1" pageScale="1" pageWidth="827" pageHeight="1169" math="0" shadow="0">
      <root>
        <mxCell id="0" />
        <mxCell id="1" parent="0" />
        <mxCell id="L6ibwcZqbPdTsbd80rwH-10" value="" style="edgeStyle=orthogonalEdgeStyle;rounded=0;orthogonalLoop=1;jettySize=auto;html=1;" parent="1" target="L6ibwcZqbPdTsbd80rwH-3" edge="1">
          <mxGeometry relative="1" as="geometry">
            <mxPoint x="403" y="-1010" as="sourcePoint" />
          </mxGeometry>
        </mxCell>
        <mxCell id="Q46bIN2CbQEM2of99NCU-3" value="" style="edgeStyle=orthogonalEdgeStyle;rounded=0;orthogonalLoop=1;jettySize=auto;html=1;" edge="1" parent="1" source="L6ibwcZqbPdTsbd80rwH-3" target="Q46bIN2CbQEM2of99NCU-1">
          <mxGeometry relative="1" as="geometry" />
        </mxCell>
        <mxCell id="L6ibwcZqbPdTsbd80rwH-3" value="&lt;div&gt;imprimir&amp;nbsp;&lt;span style=&quot;background-color: transparent; color: light-dark(rgb(0, 0, 0), rgb(255, 255, 255));&quot;&gt;&quot;Ingrese la temperatura en grados Fahrenheit: &quot;&lt;/span&gt;&lt;/div&gt;" style="shape=parallelogram;perimeter=parallelogramPerimeter;whiteSpace=wrap;html=1;fixedSize=1;" parent="1" vertex="1">
          <mxGeometry x="135.5" y="-930" width="535" height="60" as="geometry" />
        </mxCell>
        <mxCell id="Q46bIN2CbQEM2of99NCU-2" value="" style="edgeStyle=orthogonalEdgeStyle;rounded=0;orthogonalLoop=1;jettySize=auto;html=1;" edge="1" parent="1" source="L6ibwcZqbPdTsbd80rwH-4" target="L6ibwcZqbPdTsbd80rwH-5">
          <mxGeometry relative="1" as="geometry" />
        </mxCell>
        <mxCell id="L6ibwcZqbPdTsbd80rwH-4" value="&lt;div&gt;&lt;br&gt;&lt;/div&gt;&lt;div&gt;temperatura_FtoC =&lt;span style=&quot;background-color: transparent; color: light-dark(rgb(0, 0, 0), rgb(255, 255, 255));&quot;&gt;&amp;nbsp;(&lt;/span&gt;Fahrenheit&lt;span style=&quot;background-color: transparent; color: light-dark(rgb(0, 0, 0), rgb(255, 255, 255));&quot;&gt;-32) 5/9&lt;/span&gt;&lt;/div&gt;&lt;br&gt;&lt;div&gt;&lt;br&gt;&lt;/div&gt;" style="rounded=0;whiteSpace=wrap;html=1;" parent="1" vertex="1">
          <mxGeometry x="290" y="-710" width="226" height="90" as="geometry" />
        </mxCell>
        <mxCell id="L6ibwcZqbPdTsbd80rwH-23" style="edgeStyle=orthogonalEdgeStyle;rounded=0;orthogonalLoop=1;jettySize=auto;html=1;exitX=0;exitY=0.5;exitDx=0;exitDy=0;entryX=0.5;entryY=0;entryDx=0;entryDy=0;" parent="1" source="L6ibwcZqbPdTsbd80rwH-5" target="L6ibwcZqbPdTsbd80rwH-7" edge="1">
          <mxGeometry relative="1" as="geometry" />
        </mxCell>
        <mxCell id="L6ibwcZqbPdTsbd80rwH-25" value="True" style="edgeLabel;html=1;align=center;verticalAlign=middle;resizable=0;points=[];" parent="L6ibwcZqbPdTsbd80rwH-23" vertex="1" connectable="0">
          <mxGeometry x="-0.6087" y="-2" relative="1" as="geometry">
            <mxPoint as="offset" />
          </mxGeometry>
        </mxCell>
        <mxCell id="L6ibwcZqbPdTsbd80rwH-5" value="&lt;div&gt;&lt;br&gt;&lt;/div&gt;&lt;span style=&quot;color: light-dark(rgb(0, 0, 0), rgb(255, 255, 255)); background-color: transparent;&quot;&gt;temperatura_FtoC =&amp;gt; 100&lt;/span&gt;&lt;div&gt;&lt;span style=&quot;color: light-dark(rgb(0, 0, 0), rgb(255, 255, 255)); background-color: transparent;&quot;&gt;&lt;br&gt;&lt;/span&gt;&lt;/div&gt;" style="rhombus;whiteSpace=wrap;html=1;" parent="1" vertex="1">
          <mxGeometry x="310" y="-550" width="186" height="110" as="geometry" />
        </mxCell>
        <mxCell id="L6ibwcZqbPdTsbd80rwH-20" style="edgeStyle=orthogonalEdgeStyle;rounded=0;orthogonalLoop=1;jettySize=auto;html=1;exitX=0.5;exitY=1;exitDx=0;exitDy=0;entryX=0.5;entryY=0;entryDx=0;entryDy=0;" parent="1" source="L6ibwcZqbPdTsbd80rwH-7" target="L6ibwcZqbPdTsbd80rwH-14" edge="1">
          <mxGeometry relative="1" as="geometry" />
        </mxCell>
        <mxCell id="L6ibwcZqbPdTsbd80rwH-7" value="&lt;div&gt;Print &quot;el agua llegó al punto de ebulliicion&quot;&lt;/div&gt;" style="shape=parallelogram;perimeter=parallelogramPerimeter;whiteSpace=wrap;html=1;fixedSize=1;" parent="1" vertex="1">
          <mxGeometry x="79" y="-390" width="302" height="60" as="geometry" />
        </mxCell>
        <mxCell id="L6ibwcZqbPdTsbd80rwH-21" style="edgeStyle=orthogonalEdgeStyle;rounded=0;orthogonalLoop=1;jettySize=auto;html=1;exitX=0.5;exitY=1;exitDx=0;exitDy=0;" parent="1" source="L6ibwcZqbPdTsbd80rwH-8" edge="1">
          <mxGeometry relative="1" as="geometry">
            <mxPoint x="399" y="-260" as="targetPoint" />
          </mxGeometry>
        </mxCell>
        <mxCell id="L6ibwcZqbPdTsbd80rwH-8" value="&lt;div&gt;Print &quot;El agua no ha llegado a su putno de ebullicion&quot;&lt;/div&gt;" style="shape=parallelogram;perimeter=parallelogramPerimeter;whiteSpace=wrap;html=1;fixedSize=1;" parent="1" vertex="1">
          <mxGeometry x="409" y="-390" width="390" height="60" as="geometry" />
        </mxCell>
        <mxCell id="L6ibwcZqbPdTsbd80rwH-14" value="Salida" style="rounded=1;whiteSpace=wrap;html=1;arcSize=40;" parent="1" vertex="1">
          <mxGeometry x="343" y="-260" width="120" height="60" as="geometry" />
        </mxCell>
        <mxCell id="L6ibwcZqbPdTsbd80rwH-15" value="Inicio" style="rounded=1;whiteSpace=wrap;html=1;arcSize=40;" parent="1" vertex="1">
          <mxGeometry x="349" y="-1060" width="120" height="60" as="geometry" />
        </mxCell>
        <mxCell id="L6ibwcZqbPdTsbd80rwH-24" style="edgeStyle=orthogonalEdgeStyle;rounded=0;orthogonalLoop=1;jettySize=auto;html=1;exitX=1;exitY=0.5;exitDx=0;exitDy=0;entryX=0.588;entryY=0.083;entryDx=0;entryDy=0;entryPerimeter=0;" parent="1" source="L6ibwcZqbPdTsbd80rwH-5" target="L6ibwcZqbPdTsbd80rwH-8" edge="1">
          <mxGeometry relative="1" as="geometry" />
        </mxCell>
        <mxCell id="L6ibwcZqbPdTsbd80rwH-26" value="False" style="edgeLabel;html=1;align=center;verticalAlign=middle;resizable=0;points=[];" parent="L6ibwcZqbPdTsbd80rwH-24" vertex="1" connectable="0">
          <mxGeometry x="-0.4883" y="-3" relative="1" as="geometry">
            <mxPoint as="offset" />
          </mxGeometry>
        </mxCell>
        <mxCell id="L6ibwcZqbPdTsbd80rwH-28" value="Ramírez Ramírez, Antonio Gabriel&lt;div&gt;202508702&lt;/div&gt;" style="text;html=1;align=center;verticalAlign=middle;resizable=0;points=[];autosize=1;strokeColor=none;fillColor=none;" parent="1" vertex="1">
          <mxGeometry x="9" y="-1150" width="210" height="40" as="geometry" />
        </mxCell>
        <mxCell id="9v0zk7QX-WcIDmFi2F4O-1" value="&lt;div&gt;&lt;br&gt;&lt;/div&gt;&lt;div&gt;&lt;br&gt;&lt;/div&gt;&lt;div&gt;&lt;br&gt;&lt;/div&gt;&lt;div&gt;&lt;br&gt;&lt;/div&gt;Begin:&amp;nbsp;&lt;div&gt;&lt;br&gt;&lt;/div&gt;&lt;div&gt;&lt;span style=&quot;white-space: pre;&quot;&gt;&#x9;&lt;/span&gt;Print &quot;ingrese temperatura en grados Fahrenheit&quot;&lt;/div&gt;&lt;div&gt;&lt;span style=&quot;white-space: pre;&quot;&gt;&#x9;&lt;/span&gt;read&amp;nbsp;&lt;span style=&quot;background-color: transparent; color: light-dark(rgb(0, 0, 0), rgb(255, 255, 255));&quot;&gt;Fahrenheit&lt;/span&gt;&lt;/div&gt;&lt;div&gt;&lt;span style=&quot;white-space: pre;&quot;&gt;&#x9;&lt;/span&gt;&lt;span style=&quot;background-color: transparent; color: light-dark(rgb(0, 0, 0), rgb(255, 255, 255));&quot;&gt;temperatura_FtoC=&lt;/span&gt;&lt;span style=&quot;background-color: transparent; color: light-dark(rgb(0, 0, 0), rgb(255, 255, 255));&quot;&gt;&amp;nbsp;(&lt;/span&gt;Fahrenheit&lt;span style=&quot;background-color: transparent; color: light-dark(rgb(0, 0, 0), rgb(255, 255, 255));&quot;&gt;-32) 5/9&lt;/span&gt;&lt;/div&gt;&lt;div&gt;&lt;span style=&quot;white-space: pre;&quot;&gt;&#x9;&lt;/span&gt;&lt;font&gt;if&amp;nbsp;&lt;span style=&quot;text-align: center; background-color: transparent; color: light-dark(rgb(0, 0, 0), rgb(255, 255, 255));&quot;&gt;temperatura_FtoC =&amp;gt; 100 then print &quot;El agua llegó al punto de ebullicion&quot;&lt;/span&gt;&lt;/font&gt;&lt;/div&gt;&lt;div&gt;&lt;font&gt;&lt;span style=&quot;white-space: pre;&quot;&gt;&#x9;&lt;/span&gt;else print &quot;El agua no ha llegado a su punto de ebullición&quot;&lt;br&gt;&lt;/font&gt;&lt;/div&gt;&lt;div&gt;&lt;font&gt;&lt;span style=&quot;white-space: pre;&quot;&gt;&#x9;&lt;/span&gt;end if&amp;nbsp;&lt;/font&gt;&lt;/div&gt;&lt;div&gt;&lt;div&gt;&lt;br&gt;&lt;/div&gt;&lt;div&gt;end&lt;/div&gt;&lt;div&gt;&lt;br&gt;&lt;/div&gt;&lt;div&gt;Inicio&amp;nbsp;&lt;/div&gt;&lt;div&gt;&lt;span style=&quot;white-space: pre;&quot;&gt;&#x9;&lt;/span&gt;imprimir &quot;ingrese temperatura en grados Fahrenheit&quot;&lt;br&gt;&lt;/div&gt;&lt;div&gt;&lt;span style=&quot;white-space: pre;&quot;&gt;&#x9;&lt;/span&gt;leer&amp;nbsp;&lt;span style=&quot;background-color: transparent; color: light-dark(rgb(0, 0, 0), rgb(255, 255, 255));&quot;&gt;Fahrenheit&lt;/span&gt;&lt;br&gt;&lt;/div&gt;&lt;div&gt;&lt;span style=&quot;white-space: pre;&quot;&gt;&#x9;&lt;/span&gt;temperatura_FtoC = (Fahrenheit-32) 5/9&lt;br&gt;&lt;/div&gt;&lt;div&gt;&lt;span style=&quot;white-space: pre;&quot;&gt;&#x9;&lt;/span&gt;si temperatura_FtoC&amp;nbsp; =&amp;gt; 100 entonces imprimir &quot;el agua llegó al punto de &lt;span style=&quot;white-space: pre;&quot;&gt;&#x9;&lt;/span&gt;ebullicion&quot;&lt;br&gt;&lt;/div&gt;&lt;div&gt;&lt;span style=&quot;white-space: pre;&quot;&gt;&#x9;&lt;/span&gt;si no&amp;nbsp;&lt;/div&gt;&lt;div&gt;&lt;span style=&quot;white-space: pre;&quot;&gt;&#x9;&lt;/span&gt;&lt;span style=&quot;white-space: pre;&quot;&gt;&#x9;&lt;/span&gt;imprimir &quot;El agua no ha llegado a su punto de ebullición&quot;&lt;br&gt;&lt;/div&gt;&lt;div&gt;&lt;span style=&quot;white-space: pre;&quot;&gt;&#x9;&lt;/span&gt;fin si&lt;/div&gt;&lt;div&gt;&lt;span style=&quot;background-color: transparent; color: light-dark(rgb(0, 0, 0), rgb(255, 255, 255));&quot;&gt;&lt;br&gt;&lt;/span&gt;&lt;/div&gt;&lt;div&gt;&lt;span style=&quot;background-color: transparent; color: light-dark(rgb(0, 0, 0), rgb(255, 255, 255));&quot;&gt;fin&amp;nbsp;&lt;/span&gt;&lt;/div&gt;&lt;div&gt;&lt;br&gt;&lt;/div&gt;&lt;div&gt;&lt;br&gt;&lt;/div&gt;&lt;div&gt;&lt;br&gt;&lt;/div&gt;&lt;div&gt;&lt;br&gt;&lt;/div&gt;&lt;div&gt;&lt;br&gt;&lt;/div&gt;&lt;div&gt;&lt;br&gt;&lt;/div&gt;&lt;/div&gt;" style="text;html=1;align=left;verticalAlign=middle;whiteSpace=wrap;rounded=0;fillColor=#dae8fc;strokeColor=#6c8ebf;fontSize=20;" parent="1" vertex="1">
          <mxGeometry x="59" y="130" width="740" height="590" as="geometry" />
        </mxCell>
        <mxCell id="Q46bIN2CbQEM2of99NCU-4" value="" style="edgeStyle=orthogonalEdgeStyle;rounded=0;orthogonalLoop=1;jettySize=auto;html=1;" edge="1" parent="1" source="Q46bIN2CbQEM2of99NCU-1" target="L6ibwcZqbPdTsbd80rwH-4">
          <mxGeometry relative="1" as="geometry" />
        </mxCell>
        <mxCell id="Q46bIN2CbQEM2of99NCU-1" value="Leer Fahrenheit" style="shape=parallelogram;perimeter=parallelogramPerimeter;whiteSpace=wrap;html=1;fixedSize=1;" vertex="1" parent="1">
          <mxGeometry x="343" y="-830" width="120" height="60" as="geometry" />
        </mxCell>
        <mxCell id="Q46bIN2CbQEM2of99NCU-9" value="Ramírez Ramírez, Antonio Gabriel&lt;div&gt;202508702&lt;/div&gt;" style="text;html=1;align=center;verticalAlign=middle;resizable=0;points=[];autosize=1;strokeColor=none;fillColor=none;" vertex="1" parent="1">
          <mxGeometry x="24" y="30" width="210" height="40" as="geometry" />
        </mxCell>
      </root>
    </mxGraphModel>
  </diagram>
  <diagram id="LdLR1YzIZN3hkGWSFBgk" name="Página-2">
    <mxGraphModel dx="1426" dy="-422" grid="1" gridSize="10" guides="1" tooltips="1" connect="1" arrows="1" fold="1" page="1" pageScale="1" pageWidth="827" pageHeight="1169" math="0" shadow="0">
      <root>
        <mxCell id="0" />
        <mxCell id="1" parent="0" />
        <mxCell id="L_xG4M0tSVq2EfCGp0TZ-1" value="" style="edgeStyle=orthogonalEdgeStyle;rounded=0;orthogonalLoop=1;jettySize=auto;html=1;" edge="1" parent="1" source="L_xG4M0tSVq2EfCGp0TZ-2" target="L_xG4M0tSVq2EfCGp0TZ-4">
          <mxGeometry relative="1" as="geometry" />
        </mxCell>
        <mxCell id="L_xG4M0tSVq2EfCGp0TZ-2" value="incio" style="rounded=1;whiteSpace=wrap;html=1;arcSize=50;" vertex="1" parent="1">
          <mxGeometry x="334" y="1190" width="120" height="60" as="geometry" />
        </mxCell>
        <mxCell id="L_xG4M0tSVq2EfCGp0TZ-3" value="" style="edgeStyle=orthogonalEdgeStyle;rounded=0;orthogonalLoop=1;jettySize=auto;html=1;" edge="1" parent="1" source="L_xG4M0tSVq2EfCGp0TZ-4" target="L_xG4M0tSVq2EfCGp0TZ-13">
          <mxGeometry relative="1" as="geometry" />
        </mxCell>
        <mxCell id="L_xG4M0tSVq2EfCGp0TZ-4" value="imprimir &quot;Ingrese altura&quot;" style="shape=parallelogram;perimeter=parallelogramPerimeter;whiteSpace=wrap;html=1;fixedSize=1;" vertex="1" parent="1">
          <mxGeometry x="276" y="1290" width="236" height="60" as="geometry" />
        </mxCell>
        <mxCell id="L_xG4M0tSVq2EfCGp0TZ-5" value="" style="edgeStyle=orthogonalEdgeStyle;rounded=0;orthogonalLoop=1;jettySize=auto;html=1;" edge="1" parent="1" source="L_xG4M0tSVq2EfCGp0TZ-6" target="L_xG4M0tSVq2EfCGp0TZ-15">
          <mxGeometry relative="1" as="geometry" />
        </mxCell>
        <mxCell id="L_xG4M0tSVq2EfCGp0TZ-6" value="&lt;span style=&quot;color: rgb(0, 0, 0); font-family: Helvetica; font-size: 12px; font-style: normal; font-variant-ligatures: normal; font-variant-caps: normal; font-weight: 400; letter-spacing: normal; orphans: 2; text-align: center; text-indent: 0px; text-transform: none; widows: 2; word-spacing: 0px; -webkit-text-stroke-width: 0px; white-space: normal; background-color: rgb(251, 251, 251); text-decoration-thickness: initial; text-decoration-style: initial; text-decoration-color: initial; float: none; display: inline !important;&quot;&gt;Imprimir &quot;Ingrese area&quot;&lt;/span&gt;" style="shape=parallelogram;perimeter=parallelogramPerimeter;whiteSpace=wrap;html=1;fixedSize=1;" vertex="1" parent="1">
          <mxGeometry x="274" y="1490" width="240" height="60" as="geometry" />
        </mxCell>
        <mxCell id="L_xG4M0tSVq2EfCGp0TZ-7" value="" style="edgeStyle=orthogonalEdgeStyle;rounded=0;orthogonalLoop=1;jettySize=auto;html=1;" edge="1" parent="1" source="L_xG4M0tSVq2EfCGp0TZ-8" target="L_xG4M0tSVq2EfCGp0TZ-10">
          <mxGeometry relative="1" as="geometry" />
        </mxCell>
        <mxCell id="L_xG4M0tSVq2EfCGp0TZ-8" value="base_de_triangulo = (area * 2) /altura&amp;nbsp;" style="rounded=0;whiteSpace=wrap;html=1;" vertex="1" parent="1">
          <mxGeometry x="294" y="1660" width="200" height="90" as="geometry" />
        </mxCell>
        <mxCell id="L_xG4M0tSVq2EfCGp0TZ-9" value="" style="edgeStyle=orthogonalEdgeStyle;rounded=0;orthogonalLoop=1;jettySize=auto;html=1;" edge="1" parent="1" source="L_xG4M0tSVq2EfCGp0TZ-10">
          <mxGeometry relative="1" as="geometry">
            <mxPoint x="394" y="1910" as="targetPoint" />
          </mxGeometry>
        </mxCell>
        <mxCell id="L_xG4M0tSVq2EfCGp0TZ-10" value="Imprimir base_de_triangulo" style="shape=parallelogram;perimeter=parallelogramPerimeter;whiteSpace=wrap;html=1;fixedSize=1;" vertex="1" parent="1">
          <mxGeometry x="259" y="1790" width="270" height="60" as="geometry" />
        </mxCell>
        <mxCell id="L_xG4M0tSVq2EfCGp0TZ-11" value="FIn" style="rounded=1;whiteSpace=wrap;html=1;arcSize=50;" vertex="1" parent="1">
          <mxGeometry x="334" y="1910" width="120" height="60" as="geometry" />
        </mxCell>
        <mxCell id="L_xG4M0tSVq2EfCGp0TZ-12" value="" style="edgeStyle=orthogonalEdgeStyle;rounded=0;orthogonalLoop=1;jettySize=auto;html=1;" edge="1" parent="1" source="L_xG4M0tSVq2EfCGp0TZ-13" target="L_xG4M0tSVq2EfCGp0TZ-6">
          <mxGeometry relative="1" as="geometry" />
        </mxCell>
        <mxCell id="L_xG4M0tSVq2EfCGp0TZ-13" value="leer altura" style="shape=parallelogram;perimeter=parallelogramPerimeter;whiteSpace=wrap;html=1;fixedSize=1;" vertex="1" parent="1">
          <mxGeometry x="334" y="1400" width="120" height="60" as="geometry" />
        </mxCell>
        <mxCell id="L_xG4M0tSVq2EfCGp0TZ-14" value="" style="edgeStyle=orthogonalEdgeStyle;rounded=0;orthogonalLoop=1;jettySize=auto;html=1;" edge="1" parent="1" source="L_xG4M0tSVq2EfCGp0TZ-15" target="L_xG4M0tSVq2EfCGp0TZ-8">
          <mxGeometry relative="1" as="geometry" />
        </mxCell>
        <mxCell id="L_xG4M0tSVq2EfCGp0TZ-15" value="leer area" style="shape=parallelogram;perimeter=parallelogramPerimeter;whiteSpace=wrap;html=1;fixedSize=1;" vertex="1" parent="1">
          <mxGeometry x="334" y="1570" width="120" height="60" as="geometry" />
        </mxCell>
        <mxCell id="L_xG4M0tSVq2EfCGp0TZ-16" value="begin&amp;nbsp;&lt;div&gt;&lt;span style=&quot;white-space: pre;&quot;&gt;&#x9;&lt;/span&gt;print &quot;ingrese altura&quot;&lt;br&gt;&lt;/div&gt;&lt;div&gt;&lt;span style=&quot;white-space: pre;&quot;&gt;&#x9;&lt;/span&gt;read altura&lt;br&gt;&lt;/div&gt;&lt;div&gt;&lt;span style=&quot;white-space: pre;&quot;&gt;&#x9;&lt;/span&gt;print &quot;ingrese area&quot;&lt;br&gt;&lt;/div&gt;&lt;div&gt;&lt;span style=&quot;white-space: pre;&quot;&gt;&#x9;&lt;/span&gt;read area&lt;br&gt;&lt;/div&gt;&lt;div&gt;&lt;span style=&quot;white-space: pre;&quot;&gt;&#x9;&lt;/span&gt;base_de_triangulo = (area*2) / altura&lt;br&gt;&lt;/div&gt;&lt;div&gt;&lt;span style=&quot;white-space: pre;&quot;&gt;&#x9;&lt;/span&gt;print base_de_triangulo&lt;br&gt;&lt;/div&gt;&lt;div&gt;end&lt;/div&gt;&lt;div&gt;&lt;br&gt;&lt;/div&gt;&lt;div&gt;&lt;br&gt;&lt;/div&gt;&lt;div&gt;&lt;br&gt;&lt;/div&gt;" style="text;html=1;align=left;verticalAlign=middle;whiteSpace=wrap;rounded=0;fontSize=20;fillColor=#fff2cc;strokeColor=#d6b656;" vertex="1" parent="1">
          <mxGeometry x="138" y="1990" width="530" height="270" as="geometry" />
        </mxCell>
        <mxCell id="L_xG4M0tSVq2EfCGp0TZ-17" value="Ramírez Ramírez, Antonio Gabriel&lt;div&gt;202508702&lt;/div&gt;" style="text;html=1;align=center;verticalAlign=middle;resizable=0;points=[];autosize=1;strokeColor=none;fillColor=none;" vertex="1" parent="1">
          <mxGeometry x="49" y="1210" width="210" height="40" as="geometry" />
        </mxCell>
      </root>
    </mxGraphModel>
  </diagram>
  <diagram id="9cOh-g0t1YY5Kio2_Fx2" name="Página-3">
    <mxGraphModel dx="1426" dy="-1591" grid="1" gridSize="10" guides="1" tooltips="1" connect="1" arrows="1" fold="1" page="1" pageScale="1" pageWidth="827" pageHeight="1169" math="0" shadow="0">
      <root>
        <mxCell id="0" />
        <mxCell id="1" parent="0" />
        <mxCell id="kdI5kG1pXLmCphFLO5ox-1" value="" style="edgeStyle=orthogonalEdgeStyle;rounded=0;orthogonalLoop=1;jettySize=auto;html=1;" edge="1" parent="1" source="kdI5kG1pXLmCphFLO5ox-2" target="kdI5kG1pXLmCphFLO5ox-4">
          <mxGeometry relative="1" as="geometry" />
        </mxCell>
        <mxCell id="kdI5kG1pXLmCphFLO5ox-2" value="inico" style="rounded=1;whiteSpace=wrap;html=1;arcSize=50;" vertex="1" parent="1">
          <mxGeometry x="344" y="2360" width="120" height="60" as="geometry" />
        </mxCell>
        <mxCell id="kdI5kG1pXLmCphFLO5ox-3" value="" style="edgeStyle=orthogonalEdgeStyle;rounded=0;orthogonalLoop=1;jettySize=auto;html=1;" edge="1" parent="1" source="kdI5kG1pXLmCphFLO5ox-4" target="kdI5kG1pXLmCphFLO5ox-16">
          <mxGeometry relative="1" as="geometry" />
        </mxCell>
        <mxCell id="kdI5kG1pXLmCphFLO5ox-4" value="imprimir &quot;Ingrese su edad actual&quot;" style="shape=parallelogram;perimeter=parallelogramPerimeter;whiteSpace=wrap;html=1;fixedSize=1;" vertex="1" parent="1">
          <mxGeometry x="234" y="2480" width="340" height="60" as="geometry" />
        </mxCell>
        <mxCell id="kdI5kG1pXLmCphFLO5ox-5" style="edgeStyle=orthogonalEdgeStyle;rounded=0;orthogonalLoop=1;jettySize=auto;html=1;exitX=0;exitY=0.5;exitDx=0;exitDy=0;" edge="1" parent="1" source="kdI5kG1pXLmCphFLO5ox-9" target="kdI5kG1pXLmCphFLO5ox-11">
          <mxGeometry relative="1" as="geometry" />
        </mxCell>
        <mxCell id="kdI5kG1pXLmCphFLO5ox-6" value="True" style="edgeLabel;html=1;align=center;verticalAlign=middle;resizable=0;points=[];" vertex="1" connectable="0" parent="kdI5kG1pXLmCphFLO5ox-5">
          <mxGeometry x="-0.2813" y="-2" relative="1" as="geometry">
            <mxPoint as="offset" />
          </mxGeometry>
        </mxCell>
        <mxCell id="kdI5kG1pXLmCphFLO5ox-7" style="edgeStyle=orthogonalEdgeStyle;rounded=0;orthogonalLoop=1;jettySize=auto;html=1;exitX=1;exitY=0.5;exitDx=0;exitDy=0;" edge="1" parent="1" source="kdI5kG1pXLmCphFLO5ox-9" target="kdI5kG1pXLmCphFLO5ox-12">
          <mxGeometry relative="1" as="geometry" />
        </mxCell>
        <mxCell id="kdI5kG1pXLmCphFLO5ox-8" value="False" style="edgeLabel;html=1;align=center;verticalAlign=middle;resizable=0;points=[];" vertex="1" connectable="0" parent="kdI5kG1pXLmCphFLO5ox-7">
          <mxGeometry x="-0.1872" y="-4" relative="1" as="geometry">
            <mxPoint as="offset" />
          </mxGeometry>
        </mxCell>
        <mxCell id="kdI5kG1pXLmCphFLO5ox-9" value="&lt;br&gt;&lt;span style=&quot;color: rgb(0, 0, 0); font-family: Helvetica; font-size: 12px; font-style: normal; font-variant-ligatures: normal; font-variant-caps: normal; font-weight: 400; letter-spacing: normal; orphans: 2; text-align: center; text-indent: 0px; text-transform: none; widows: 2; word-spacing: 0px; -webkit-text-stroke-width: 0px; white-space: normal; background-color: rgb(251, 251, 251); text-decoration-thickness: initial; text-decoration-style: initial; text-decoration-color: initial; float: none; display: inline !important;&quot;&gt;edad &amp;gt;= 18&lt;/span&gt;&lt;div&gt;&lt;br&gt;&lt;/div&gt;" style="rhombus;whiteSpace=wrap;html=1;" vertex="1" parent="1">
          <mxGeometry x="321" y="2660" width="166" height="160" as="geometry" />
        </mxCell>
        <mxCell id="kdI5kG1pXLmCphFLO5ox-10" style="edgeStyle=orthogonalEdgeStyle;rounded=0;orthogonalLoop=1;jettySize=auto;html=1;exitX=0.5;exitY=1;exitDx=0;exitDy=0;entryX=0;entryY=0.5;entryDx=0;entryDy=0;" edge="1" parent="1" source="kdI5kG1pXLmCphFLO5ox-11" target="kdI5kG1pXLmCphFLO5ox-13">
          <mxGeometry relative="1" as="geometry" />
        </mxCell>
        <mxCell id="kdI5kG1pXLmCphFLO5ox-11" value="imprimir &quot;usted es mayor de edad&quot;" style="shape=parallelogram;perimeter=parallelogramPerimeter;whiteSpace=wrap;html=1;fixedSize=1;" vertex="1" parent="1">
          <mxGeometry x="110" y="2850" width="201" height="60" as="geometry" />
        </mxCell>
        <mxCell id="kdI5kG1pXLmCphFLO5ox-12" value="imprimir &quot;usted es menor de edad&quot;" style="shape=parallelogram;perimeter=parallelogramPerimeter;whiteSpace=wrap;html=1;fixedSize=1;" vertex="1" parent="1">
          <mxGeometry x="457" y="2850" width="296" height="60" as="geometry" />
        </mxCell>
        <mxCell id="kdI5kG1pXLmCphFLO5ox-13" value="Fin" style="rounded=1;whiteSpace=wrap;html=1;arcSize=50;" vertex="1" parent="1">
          <mxGeometry x="334" y="2960" width="120" height="60" as="geometry" />
        </mxCell>
        <mxCell id="kdI5kG1pXLmCphFLO5ox-14" style="edgeStyle=orthogonalEdgeStyle;rounded=0;orthogonalLoop=1;jettySize=auto;html=1;exitX=0.5;exitY=1;exitDx=0;exitDy=0;entryX=1.003;entryY=0.641;entryDx=0;entryDy=0;entryPerimeter=0;" edge="1" parent="1" source="kdI5kG1pXLmCphFLO5ox-12" target="kdI5kG1pXLmCphFLO5ox-13">
          <mxGeometry relative="1" as="geometry" />
        </mxCell>
        <mxCell id="kdI5kG1pXLmCphFLO5ox-15" value="" style="edgeStyle=orthogonalEdgeStyle;rounded=0;orthogonalLoop=1;jettySize=auto;html=1;" edge="1" parent="1" source="kdI5kG1pXLmCphFLO5ox-16" target="kdI5kG1pXLmCphFLO5ox-9">
          <mxGeometry relative="1" as="geometry" />
        </mxCell>
        <mxCell id="kdI5kG1pXLmCphFLO5ox-16" value="leer edad" style="shape=parallelogram;perimeter=parallelogramPerimeter;whiteSpace=wrap;html=1;fixedSize=1;" vertex="1" parent="1">
          <mxGeometry x="234" y="2570" width="340" height="60" as="geometry" />
        </mxCell>
        <mxCell id="kdI5kG1pXLmCphFLO5ox-17" value="&lt;font style=&quot;font-size: 20px;&quot;&gt;begin&lt;/font&gt;&lt;div&gt;&lt;font style=&quot;font-size: 20px;&quot;&gt;&lt;span style=&quot;white-space: pre;&quot;&gt;&#x9;&lt;/span&gt;print &quot;ingrese su edad actual&quot;&lt;br&gt;&lt;/font&gt;&lt;/div&gt;&lt;div&gt;&lt;font style=&quot;font-size: 20px;&quot;&gt;&lt;span style=&quot;white-space: pre;&quot;&gt;&#x9;&lt;/span&gt;read edad&lt;br&gt;&lt;/font&gt;&lt;/div&gt;&lt;div&gt;&lt;font style=&quot;font-size: 20px;&quot;&gt;&lt;span style=&quot;white-space: pre;&quot;&gt;&#x9;&lt;/span&gt;if (edad &amp;gt;= 18) then&amp;nbsp;&lt;br&gt;&lt;/font&gt;&lt;/div&gt;&lt;div&gt;&lt;font style=&quot;font-size: 20px;&quot;&gt;&lt;span style=&quot;white-space: pre;&quot;&gt;&#x9;&lt;span style=&quot;white-space: pre;&quot;&gt;&#x9;&lt;/span&gt;&lt;/span&gt;print &quot;usted es mayor de edad&quot;&lt;br&gt;&lt;/font&gt;&lt;/div&gt;&lt;div&gt;&lt;font style=&quot;font-size: 20px;&quot;&gt;&lt;span style=&quot;white-space: pre;&quot;&gt;&#x9;&lt;/span&gt;else&amp;nbsp;&lt;br&gt;&lt;span style=&quot;white-space: pre;&quot;&gt;&#x9;&lt;/span&gt;&lt;span style=&quot;white-space: pre;&quot;&gt;&#x9;&lt;/span&gt;print &quot;usted es menor de edad&quot;&lt;br&gt;&lt;/font&gt;&lt;/div&gt;&lt;div&gt;&lt;font style=&quot;font-size: 20px;&quot;&gt;&lt;br&gt;&lt;/font&gt;&lt;/div&gt;&lt;div&gt;&lt;font style=&quot;font-size: 20px;&quot;&gt;end&amp;nbsp;&lt;/font&gt;&lt;/div&gt;" style="text;html=1;align=left;verticalAlign=middle;whiteSpace=wrap;rounded=0;fillColor=#d5e8d4;strokeColor=#82b366;" vertex="1" parent="1">
          <mxGeometry x="215.5" y="3120" width="377" height="230" as="geometry" />
        </mxCell>
        <mxCell id="kdI5kG1pXLmCphFLO5ox-18" value="Ramírez Ramírez, Antonio Gabriel&lt;div&gt;202508702&lt;/div&gt;" style="text;html=1;align=center;verticalAlign=middle;resizable=0;points=[];autosize=1;strokeColor=none;fillColor=none;" vertex="1" parent="1">
          <mxGeometry x="20" y="2360" width="210" height="40" as="geometry" />
        </mxCell>
      </root>
    </mxGraphModel>
  </diagram>
</mxfile>
